<?xml version="1.0" encoding="utf-8" standalone="no"?>
<!DOCTYPE svg PUBLIC "-//W3C//DTD SVG 1.1//EN"
  "http://www.w3.org/Graphics/SVG/1.1/DTD/svg11.dtd">
<!-- Created with matplotlib (https://matplotlib.org/) -->
<svg height="564.28438pt" version="1.1" viewBox="0 0 808.996324 564.28438" width="808.996324pt" xmlns="http://www.w3.org/2000/svg" xmlns:xlink="http://www.w3.org/1999/xlink">
 <defs>
  <style type="text/css">
*{stroke-linecap:butt;stroke-linejoin:round;}
  </style>
 </defs>
 <g id="figure_1">
  <g id="patch_1">
   <path d="M 0 564.28438 
L 808.996324 564.28438 
L 808.996324 -0 
L 0 -0 
z
" style="fill:#ffffff;"/>
  </g>
  <g id="axes_1">
   <g id="patch_2">
    <path d="M 260.511636 173.622975 
C 257.367578 173.622975 254.224859 173.752725 251.091501 174.011895 
C 247.958143 174.271064 244.836815 174.659431 241.735484 175.176006 
L 260.511636 287.901375 
L 260.511636 173.622975 
z
" style="fill:#0cc0aa;stroke:#ffffff;stroke-linejoin:miter;stroke-width:0.7;"/>
   </g>
   <g id="patch_3">
    <path d="M 241.735484 175.176006 
C 241.735484 175.176006 241.735484 175.176006 241.735484 175.176006 
L 260.511636 287.901375 
L 241.735484 175.176006 
z
" style="stroke:#ffffff;stroke-linejoin:miter;stroke-width:0.7;"/>
   </g>
   <g id="patch_4">
    <path d="M 241.735484 175.176006 
C 241.735484 175.176006 241.735484 175.176006 241.735484 175.176006 
L 260.511636 287.901375 
L 241.735484 175.176006 
z
" style="stroke:#ffffff;stroke-linejoin:miter;stroke-width:0.7;"/>
   </g>
   <g id="patch_5">
    <path d="M 241.735484 175.176006 
C 241.735484 175.176006 241.735484 175.176006 241.735484 175.176006 
L 260.511636 287.901375 
L 241.735484 175.176006 
z
" style="stroke:#ffffff;stroke-linejoin:miter;stroke-width:0.7;"/>
   </g>
   <g id="patch_6">
    <path d="M 241.735484 175.176006 
C 241.735484 175.176006 241.735484 175.176006 241.735484 175.176006 
L 260.511636 287.901375 
L 241.735484 175.176006 
z
" style="stroke:#ffffff;stroke-linejoin:miter;stroke-width:0.7;"/>
   </g>
   <g id="patch_7">
    <path d="M 241.735484 175.176006 
C 241.735484 175.176006 241.735484 175.176006 241.735484 175.176006 
L 260.511636 287.901375 
L 241.735484 175.176006 
z
" style="stroke:#ffffff;stroke-linejoin:miter;stroke-width:0.7;"/>
   </g>
   <g id="patch_8">
    <path d="M 241.735484 175.176006 
C 241.735484 175.176006 241.735484 175.176006 241.735484 175.176006 
L 260.511636 287.901375 
L 241.735484 175.176006 
z
" style="stroke:#ffffff;stroke-linejoin:miter;stroke-width:0.7;"/>
   </g>
   <g id="patch_9">
    <path d="M 241.735484 175.176006 
C 238.56915 175.703408 235.426443 176.363984 232.315724 177.155977 
C 229.205005 177.947969 226.129037 178.870676 223.096003 179.921641 
L 260.511636 287.901375 
L 241.735484 175.176006 
z
" style="fill:#943105;stroke:#ffffff;stroke-linejoin:miter;stroke-width:0.7;"/>
   </g>
   <g id="patch_10">
    <path d="M 223.096003 179.921641 
C 223.096003 179.921641 223.096003 179.921641 223.096003 179.921641 
L 260.511636 287.901375 
L 223.096003 179.921641 
z
" style="stroke:#ffffff;stroke-linejoin:miter;stroke-width:0.7;"/>
   </g>
   <g id="patch_11">
    <path d="M 223.096003 179.921641 
C 223.096003 179.921641 223.096003 179.921641 223.096003 179.921641 
L 260.511636 287.901375 
L 223.096003 179.921641 
z
" style="stroke:#ffffff;stroke-linejoin:miter;stroke-width:0.7;"/>
   </g>
   <g id="patch_12">
    <path d="M 223.096003 179.921641 
C 223.096003 179.921641 223.096003 179.921641 223.096003 179.921641 
L 260.511636 287.901375 
L 223.096003 179.921641 
z
" style="stroke:#ffffff;stroke-linejoin:miter;stroke-width:0.7;"/>
   </g>
   <g id="patch_13">
    <path d="M 223.096003 179.921641 
C 223.096003 179.921641 223.096003 179.921641 223.096003 179.921641 
L 260.511636 287.901375 
L 223.096003 179.921641 
z
" style="stroke:#ffffff;stroke-linejoin:miter;stroke-width:0.7;"/>
   </g>
   <g id="patch_14">
    <path d="M 223.096003 179.921641 
C 223.096003 179.921641 223.096003 179.921641 223.096003 179.921641 
L 260.511636 287.901375 
L 223.096003 179.921641 
z
" style="stroke:#ffffff;stroke-linejoin:miter;stroke-width:0.7;"/>
   </g>
   <g id="patch_15">
    <path d="M 223.096003 179.921641 
C 223.096003 179.921641 223.096003 179.921641 223.096003 179.921641 
L 260.511636 287.901375 
L 223.096003 179.921641 
z
" style="stroke:#ffffff;stroke-linejoin:miter;stroke-width:0.7;"/>
   </g>
   <g id="patch_16">
    <path d="M 223.096003 179.921641 
C 219.908986 181.025961 216.772421 182.270838 213.695524 183.652613 
C 210.618626 185.034389 207.604411 186.551709 204.661733 188.200116 
L 260.511636 287.901375 
L 223.096003 179.921641 
z
" style="fill:#a1c54d;stroke:#ffffff;stroke-linejoin:miter;stroke-width:0.7;"/>
   </g>
   <g id="patch_17">
    <path d="M 204.661733 188.200116 
C 204.661733 188.200116 204.661733 188.200116 204.661733 188.200116 
L 260.511636 287.901375 
L 204.661733 188.200116 
z
" style="stroke:#ffffff;stroke-linejoin:miter;stroke-width:0.7;"/>
   </g>
   <g id="patch_18">
    <path d="M 204.661733 188.200116 
C 204.661733 188.200116 204.661733 188.200116 204.661733 188.200116 
L 260.511636 287.901375 
L 204.661733 188.200116 
z
" style="stroke:#ffffff;stroke-linejoin:miter;stroke-width:0.7;"/>
   </g>
   <g id="patch_19">
    <path d="M 204.661733 188.200116 
C 204.661733 188.200116 204.661733 188.200116 204.661733 188.200116 
L 260.511636 287.901375 
L 204.661733 188.200116 
z
" style="stroke:#ffffff;stroke-linejoin:miter;stroke-width:0.7;"/>
   </g>
   <g id="patch_20">
    <path d="M 204.661733 188.200116 
C 204.661733 188.200116 204.661733 188.200116 204.661733 188.200116 
L 260.511636 287.901375 
L 204.661733 188.200116 
z
" style="stroke:#ffffff;stroke-linejoin:miter;stroke-width:0.7;"/>
   </g>
   <g id="patch_21">
    <path d="M 204.661733 188.200116 
C 204.661733 188.200116 204.661733 188.200116 204.661733 188.200116 
L 260.511636 287.901375 
L 204.661733 188.200116 
z
" style="stroke:#ffffff;stroke-linejoin:miter;stroke-width:0.7;"/>
   </g>
   <g id="patch_22">
    <path d="M 204.661733 188.200116 
C 204.661733 188.200116 204.661733 188.200116 204.661733 188.200116 
L 260.511636 287.901375 
L 204.661733 188.200116 
z
" style="stroke:#ffffff;stroke-linejoin:miter;stroke-width:0.7;"/>
   </g>
   <g id="patch_23">
    <path d="M 204.661733 188.200116 
C 201.506588 189.967541 198.437119 191.883742 195.46369 193.942249 
C 192.490261 196.000755 189.616222 198.199248 186.851278 200.530302 
L 260.511636 287.901375 
L 204.661733 188.200116 
z
" style="fill:#537489;stroke:#ffffff;stroke-linejoin:miter;stroke-width:0.7;"/>
   </g>
   <g id="patch_24">
    <path d="M 186.851278 200.530302 
C 183.272427 203.547542 179.882341 206.781825 176.700184 210.214869 
C 173.518028 213.647912 170.54981 217.273234 167.81231 221.070338 
L 260.511636 287.901375 
L 186.851278 200.530302 
z
" style="fill:#214a65;stroke:#ffffff;stroke-linejoin:miter;stroke-width:0.7;"/>
   </g>
   <g id="patch_25">
    <path d="M 167.81231 221.070338 
C 167.81231 221.070338 167.81231 221.070338 167.81231 221.070338 
L 260.511636 287.901375 
L 167.81231 221.070338 
z
" style="stroke:#ffffff;stroke-linejoin:miter;stroke-width:0.7;"/>
   </g>
   <g id="patch_26">
    <path d="M 167.81231 221.070338 
C 167.81231 221.070338 167.81231 221.070338 167.81231 221.070338 
L 260.511636 287.901375 
L 167.81231 221.070338 
z
" style="stroke:#ffffff;stroke-linejoin:miter;stroke-width:0.7;"/>
   </g>
   <g id="patch_27">
    <path d="M 167.81231 221.070338 
C 167.81231 221.070338 167.81231 221.070338 167.81231 221.070338 
L 260.511636 287.901375 
L 167.81231 221.070338 
z
" style="stroke:#ffffff;stroke-linejoin:miter;stroke-width:0.7;"/>
   </g>
   <g id="patch_28">
    <path d="M 167.81231 221.070338 
C 167.81231 221.070338 167.81231 221.070338 167.81231 221.070338 
L 260.511636 287.901375 
L 167.81231 221.070338 
z
" style="stroke:#ffffff;stroke-linejoin:miter;stroke-width:0.7;"/>
   </g>
   <g id="patch_29">
    <path d="M 167.81231 221.070338 
C 167.81231 221.070338 167.81231 221.070338 167.81231 221.070338 
L 260.511636 287.901375 
L 167.81231 221.070338 
z
" style="stroke:#ffffff;stroke-linejoin:miter;stroke-width:0.7;"/>
   </g>
   <g id="patch_30">
    <path d="M 167.81231 221.070338 
C 165.935098 223.674162 164.168427 226.355923 162.516999 229.108487 
C 160.86557 231.861051 159.330849 234.681973 157.916919 237.563748 
L 260.511636 287.901375 
L 167.81231 221.070338 
z
" style="fill:#d8aef0;stroke:#ffffff;stroke-linejoin:miter;stroke-width:0.7;"/>
   </g>
   <g id="patch_31">
    <path d="M 157.916919 237.563748 
C 154.899696 243.713247 152.441472 250.121589 150.57195 256.711344 
C 148.702428 263.301099 147.429168 270.045617 146.767555 276.863406 
L 260.511636 287.901375 
L 157.916919 237.563748 
z
" style="fill:#d2a2ed;stroke:#ffffff;stroke-linejoin:miter;stroke-width:0.7;"/>
   </g>
   <g id="patch_32">
    <path d="M 146.767555 276.863406 
C 146.026687 284.497904 146.056339 292.187632 146.856061 299.816189 
C 147.655782 307.444746 149.221519 314.973443 151.529569 322.288314 
L 260.511636 287.901375 
L 146.767555 276.863406 
z
" style="fill:#cc96eb;stroke:#ffffff;stroke-linejoin:miter;stroke-width:0.7;"/>
   </g>
   <g id="patch_33">
    <path d="M 151.529569 322.288314 
C 151.529569 322.288314 151.529569 322.288314 151.529569 322.288314 
L 260.511636 287.901375 
L 151.529569 322.288314 
z
" style="stroke:#ffffff;stroke-linejoin:miter;stroke-width:0.7;"/>
   </g>
   <g id="patch_34">
    <path d="M 151.529569 322.288314 
C 151.529569 322.288314 151.529569 322.288314 151.529569 322.288314 
L 260.511636 287.901375 
L 151.529569 322.288314 
z
" style="stroke:#ffffff;stroke-linejoin:miter;stroke-width:0.7;"/>
   </g>
   <g id="patch_35">
    <path d="M 151.529569 322.288314 
C 151.529569 322.288314 151.529569 322.288314 151.529569 322.288314 
L 260.511636 287.901375 
L 151.529569 322.288314 
z
" style="stroke:#ffffff;stroke-linejoin:miter;stroke-width:0.7;"/>
   </g>
   <g id="patch_36">
    <path d="M 151.529569 322.288314 
C 151.529569 322.288314 151.529569 322.288314 151.529569 322.288314 
L 260.511636 287.901375 
L 151.529569 322.288314 
z
" style="stroke:#ffffff;stroke-linejoin:miter;stroke-width:0.7;"/>
   </g>
   <g id="patch_37">
    <path d="M 151.529569 322.288314 
C 152.617777 325.73716 153.869086 329.132405 155.279269 332.462587 
C 156.689453 335.792769 158.256922 339.054135 159.976385 342.235673 
L 260.511636 287.901375 
L 151.529569 322.288314 
z
" style="fill:#a89ccf;stroke:#ffffff;stroke-linejoin:miter;stroke-width:0.7;"/>
   </g>
   <g id="patch_38">
    <path d="M 159.976385 342.235673 
C 163.571707 348.88813 167.818462 355.167337 172.654163 360.980901 
C 177.489864 366.794464 182.890676 372.11373 188.777132 376.860431 
L 260.511636 287.901375 
L 159.976385 342.235673 
z
" style="fill:#8475ba;stroke:#ffffff;stroke-linejoin:miter;stroke-width:0.7;"/>
   </g>
   <g id="patch_39">
    <path d="M 188.777132 376.860431 
C 195.893794 382.59914 203.673451 387.46318 211.94912 391.348147 
C 220.224788 395.233114 228.93683 398.111011 237.898246 399.920067 
L 260.511636 287.901375 
L 188.777132 376.860431 
z
" style="fill:#614da5;stroke:#ffffff;stroke-linejoin:miter;stroke-width:0.7;"/>
   </g>
   <g id="patch_40">
    <path d="M 237.898246 399.920067 
C 252.570458 402.881969 267.682663 402.93257 282.37438 400.068987 
C 297.066097 397.205404 311.053086 391.48304 323.538934 383.227722 
L 260.511636 287.901375 
L 237.898246 399.920067 
z
" style="fill:#3e2690;stroke:#ffffff;stroke-linejoin:miter;stroke-width:0.7;"/>
   </g>
   <g id="patch_41">
    <path d="M 323.538934 383.227722 
C 323.538934 383.227722 323.538934 383.227722 323.538934 383.227722 
L 260.511636 287.901375 
L 323.538934 383.227722 
z
" style="stroke:#ffffff;stroke-linejoin:miter;stroke-width:0.7;"/>
   </g>
   <g id="patch_42">
    <path d="M 323.538934 383.227722 
C 323.538934 383.227722 323.538934 383.227722 323.538934 383.227722 
L 260.511636 287.901375 
L 323.538934 383.227722 
z
" style="stroke:#ffffff;stroke-linejoin:miter;stroke-width:0.7;"/>
   </g>
   <g id="patch_43">
    <path d="M 323.538934 383.227722 
C 323.538934 383.227722 323.538934 383.227722 323.538934 383.227722 
L 260.511636 287.901375 
L 323.538934 383.227722 
z
" style="stroke:#ffffff;stroke-linejoin:miter;stroke-width:0.7;"/>
   </g>
   <g id="patch_44">
    <path d="M 323.538934 383.227722 
C 327.103964 380.870617 330.533961 378.315379 333.812758 375.574052 
C 337.091555 372.832725 340.213991 369.909623 343.165347 366.818526 
L 260.511636 287.901375 
L 323.538934 383.227722 
z
" style="fill:#f4e0d3;stroke:#ffffff;stroke-linejoin:miter;stroke-width:0.7;"/>
   </g>
   <g id="patch_45">
    <path d="M 343.165347 366.818526 
C 346.260188 363.577152 349.161678 360.15653 351.854781 356.574388 
C 354.547884 352.992245 357.027939 349.254782 359.282093 345.381368 
L 260.511636 287.901375 
L 343.165347 366.818526 
z
" style="fill:#f1d7c7;stroke:#ffffff;stroke-linejoin:miter;stroke-width:0.7;"/>
   </g>
   <g id="patch_46">
    <path d="M 359.282093 345.381368 
C 361.74073 341.156582 363.925771 336.778396 365.823748 332.273798 
C 367.721724 327.7692 369.328729 323.147463 370.634857 318.437076 
L 260.511636 287.901375 
L 359.282093 345.381368 
z
" style="fill:#eecfbb;stroke:#ffffff;stroke-linejoin:miter;stroke-width:0.7;"/>
   </g>
   <g id="patch_47">
    <path d="M 370.634857 318.437076 
C 372.339088 312.290978 373.525801 306.012981 374.182558 299.668882 
C 374.839316 293.324784 374.963815 286.936824 374.554752 280.571953 
L 260.511636 287.901375 
L 370.634857 318.437076 
z
" style="fill:#ecc7af;stroke:#ffffff;stroke-linejoin:miter;stroke-width:0.7;"/>
   </g>
   <g id="patch_48">
    <path d="M 374.554752 280.571953 
C 374.073073 273.077198 372.853747 265.648145 370.914473 258.392624 
C 368.975199 251.137103 366.325405 244.090389 363.003552 237.354763 
L 260.511636 287.901375 
L 374.554752 280.571953 
z
" style="fill:#e9bea3;stroke:#ffffff;stroke-linejoin:miter;stroke-width:0.7;"/>
   </g>
   <g id="patch_49">
    <path d="M 363.003552 237.354763 
C 359.197727 229.637802 354.532495 222.375299 349.09662 215.705438 
C 343.660745 209.035576 337.488924 203.000929 330.698587 197.716317 
L 260.511636 287.901375 
L 363.003552 237.354763 
z
" style="fill:#e6b697;stroke:#ffffff;stroke-linejoin:miter;stroke-width:0.7;"/>
   </g>
   <g id="patch_50">
    <path d="M 330.698587 197.716317 
C 320.735495 189.962493 309.556024 183.912983 297.615194 179.814009 
C 285.674365 175.715035 273.136406 173.622974 260.511628 173.622975 
L 260.511636 287.901375 
L 330.698587 197.716317 
z
" style="fill:#e3ae8c;stroke:#ffffff;stroke-linejoin:miter;stroke-width:0.7;"/>
   </g>
   <g id="patch_51">
    <path d="M 260.511636 187.907775 
C 257.760586 187.907775 255.010707 188.021306 252.269019 188.24808 
C 249.52733 188.474853 246.796168 188.814674 244.082504 189.266677 
L 260.511636 287.901375 
L 260.511636 187.907775 
z
" style="fill:#0cc0aa;stroke:#ffffff;stroke-linejoin:miter;stroke-width:0.7;"/>
   </g>
   <g id="patch_52">
    <path d="M 244.082504 189.266677 
C 241.311962 189.728153 238.562094 190.306158 235.840215 190.999151 
C 233.118336 191.692145 230.426864 192.499513 227.772959 193.419107 
L 260.511636 287.901375 
L 244.082504 189.266677 
z
" style="fill:#943105;stroke:#ffffff;stroke-linejoin:miter;stroke-width:0.7;"/>
   </g>
   <g id="patch_53">
    <path d="M 227.772959 193.419107 
C 224.984319 194.385387 222.239826 195.474654 219.547541 196.683707 
C 216.855256 197.89276 214.217818 199.220415 211.642975 200.662771 
L 260.511636 287.901375 
L 227.772959 193.419107 
z
" style="fill:#a1c54d;stroke:#ffffff;stroke-linejoin:miter;stroke-width:0.7;"/>
   </g>
   <g id="patch_54">
    <path d="M 211.642975 200.662771 
C 205.30419 204.213584 199.371249 208.44471 193.94932 213.281149 
C 188.527391 218.117588 183.648701 223.530592 179.399732 229.424209 
L 260.511636 287.901375 
L 211.642975 200.662771 
z
" style="fill:#214a65;stroke:#ffffff;stroke-linejoin:miter;stroke-width:0.7;"/>
   </g>
   <g id="patch_55">
    <path d="M 179.399732 229.424209 
C 170.292314 242.056832 164.260751 256.644131 161.7873 272.01977 
C 159.313848 287.395408 160.466236 303.138377 165.152323 317.989936 
L 260.511636 287.901375 
L 179.399732 229.424209 
z
" style="fill:#cc96eb;stroke:#ffffff;stroke-linejoin:miter;stroke-width:0.7;"/>
   </g>
   <g id="patch_56">
    <path d="M 165.152323 317.989936 
C 169.809885 332.751089 177.831888 346.23116 188.584536 357.365123 
C 199.337183 368.499085 212.529634 376.985785 227.119588 382.15471 
C 241.709541 387.323635 257.302366 389.034976 272.666111 387.153523 
C 288.029856 385.27207 302.748961 379.848713 315.660507 371.311939 
L 260.511636 287.901375 
L 165.152323 317.989936 
z
" style="fill:#3e2690;stroke:#ffffff;stroke-linejoin:miter;stroke-width:0.7;"/>
   </g>
   <g id="patch_57">
    <path d="M 315.660507 371.311939 
C 333.586662 359.459636 347.223163 342.138403 354.53664 321.931049 
C 361.850117 301.723694 362.458046 279.687141 356.269779 259.107309 
C 350.081511 238.527478 337.420716 220.480773 320.175275 207.658181 
C 302.929834 194.835588 282.00175 187.907779 260.511656 187.907775 
L 260.511636 287.901375 
L 315.660507 371.311939 
z
" style="fill:#e3ae8c;stroke:#ffffff;stroke-linejoin:miter;stroke-width:0.7;"/>
   </g>
   <g id="matplotlib.axis_1"/>
   <g id="matplotlib.axis_2"/>
   <g id="text_1">
    <text style="font-family:Arial;font-size:7px;font-style:normal;font-weight:roman;text-anchor:end;" transform="rotate(-274.72834, 248.806688, 168.467446)" x="248.806688" y="168.467446">response to interleukin-12</text>
   </g>
   <g id="text_2">
    <text style="font-family:Arial;font-size:7px;font-style:normal;font-weight:roman;text-anchor:end;" transform="rotate(-284.284096, 229.152265, 172.065192)" x="229.152265" y="172.065192">lipid homeostasis</text>
   </g>
   <g id="text_3">
    <text style="font-family:Arial;font-size:7px;font-style:normal;font-weight:roman;text-anchor:end;" transform="rotate(-294.183931, 209.703929, 179.181513)" x="209.703929" y="179.181513">protein localization to chromosome</text>
   </g>
   <g id="text_4">
    <text style="font-family:Arial;font-size:7px;font-style:normal;font-weight:roman;text-anchor:end;" transform="rotate(-304.694874, 190.757164, 190.250987)" x="190.757164" y="190.250987">cranial skeletal system development</text>
   </g>
   <g id="text_5">
    <text style="font-family:Arial;font-size:7px;font-style:normal;font-weight:roman;text-anchor:end;" transform="rotate(-317.17195, 171.279439, 207.657706)" x="171.279439" y="207.657706">chromosome localization</text>
   </g>
   <g id="text_6">
    <text style="font-family:Arial;font-size:7px;font-style:normal;font-weight:roman;text-anchor:end;" transform="rotate(-329.037918, 156.686276, 227.720597)" x="156.686276" y="227.720597">isoprenoid metabolic process</text>
   </g>
   <g id="text_7">
    <text style="font-family:Arial;font-size:7px;font-style:normal;font-weight:roman;text-anchor:end;" transform="rotate(-344.161292, 144.592263, 256.85329)" x="144.592263" y="256.85329">organic hydroxy compound metabolic process</text>
   </g>
   <g id="text_8">
    <text style="font-family:Arial;font-size:7px;font-style:normal;font-weight:roman;text-anchor:end;" transform="rotate(-5.984608, 141.361954, 302.211677)" x="141.361954" y="302.211677">steroid metabolic process</text>
   </g>
   <g id="text_9">
    <text style="font-family:Arial;font-size:7px;font-style:normal;font-weight:roman;text-anchor:end;" transform="rotate(-22.95049, 150.707289, 336.319244)" x="150.707289" y="336.319244">kinetochore organization</text>
   </g>
   <g id="text_10">
    <text style="font-family:Arial;font-size:7px;font-style:normal;font-weight:roman;text-anchor:end;" transform="rotate(-39.75356, 169.392281, 365.994575)" x="169.392281" y="365.994575">spindle organization</text>
   </g>
   <g id="text_11">
    <text style="font-family:Arial;font-size:7px;font-style:normal;font-weight:roman;text-anchor:end;" transform="rotate(-64.852551, 211.121956, 397.272048)" x="211.121956" y="397.272048">microtubule cytoskeleton organization involved in mitosis</text>
   </g>
   <g id="text_12">
    <text style="font-family:Arial;font-size:7px;font-style:normal;font-weight:roman;text-anchor:start;" transform="rotate(-281.029317, 281.689722, 406.02388)" x="281.689722" y="406.02388">organelle fission</text>
   </g>
   <g id="text_13">
    <text style="font-family:Arial;font-size:7px;font-style:normal;font-weight:roman;text-anchor:start;" transform="rotate(-309.898225, 336.08825, 381.119468)" x="336.08825" y="381.119468">regulation of cell division</text>
   </g>
   <g id="text_14">
    <text style="font-family:Arial;font-size:7px;font-style:normal;font-weight:roman;text-anchor:start;" transform="rotate(-323.063659, 355.359142, 361.421682)" x="355.359142" y="361.421682">cellular process involved in reproduction in multicellular organism</text>
   </g>
   <g id="text_15">
    <text style="font-family:Arial;font-size:7px;font-style:normal;font-weight:roman;text-anchor:start;" transform="rotate(-337.152261, 370.386075, 336.161558)" x="370.386075" y="336.161558">female gamete generation</text>
   </g>
   <g id="text_16">
    <text style="font-family:Arial;font-size:7px;font-style:normal;font-weight:roman;text-anchor:start;" transform="rotate(-354.089646, 379.683988, 302.01645)" x="379.683988" y="302.01645">cytokinesis</text>
   </g>
   <g id="text_17">
    <text style="font-family:Arial;font-size:7px;font-style:normal;font-weight:roman;text-anchor:start;" transform="rotate(-14.964357, 376.902312, 258.667011)" x="376.902312" y="258.667011">cell cycle G2/M phase transition</text>
   </g>
   <g id="text_18">
    <text style="font-family:Arial;font-size:7px;font-style:normal;font-weight:roman;text-anchor:start;" transform="rotate(-39.179714, 354.643187, 213.466598)" x="354.643187" y="213.466598">meiotic cell cycle</text>
   </g>
   <g id="text_19">
    <text style="font-family:Arial;font-size:7px;font-style:normal;font-weight:roman;text-anchor:start;" transform="rotate(-71.053998, 301.143152, 174.983862)" x="301.143152" y="174.983862">chromosome segregation</text>
   </g>
   <g id="text_20">
    <path d="M 203.089883 222.777573 
L 204.58243 224.450806 
L 202.677066 225.5451 
Q 202.222511 225.42 201.705774 225.108533 
Q 201.189854 224.796337 200.792327 224.350686 
Q 200.173466 223.656907 200.156346 223.006768 
Q 200.134908 222.120111 200.948671 221.394224 
Q 201.494716 220.907144 202.187176 220.677859 
Q 203.021795 220.400914 203.780555 220.584432 
Q 204.540042 220.768767 205.118132 221.416839 
Q 205.696221 222.06491 205.743785 222.724534 
Q 205.792894 223.384245 205.330229 224.025593 
L 204.60936 223.381767 
Q 204.840778 223.005323 204.813729 222.65131 
Q 204.787408 222.298114 204.502732 221.978975 
Q 204.170731 221.606783 203.698349 221.468272 
Q 203.227512 221.329848 202.664591 221.515399 
Q 202.102399 221.701765 201.623283 222.129143 
Q 201.151513 222.549969 201.116178 222.965492 
Q 201.08157 223.381831 201.449974 223.794834 
Q 201.671308 224.042962 201.973029 224.239903 
Q 202.275478 224.43766 202.540792 224.539564 
L 203.19929 224.158833 
L 202.348174 223.204683 
z
M 204.542705 225.474281 
Q 204.874086 225.178683 205.330206 224.950629 
Q 205.938873 224.642195 206.538622 224.585016 
Q 207.139099 224.528653 207.710717 224.747195 
Q 208.283151 224.96501 208.744749 225.482487 
Q 209.36361 226.176267 209.313432 226.987567 
Q 209.263983 227.799684 208.552247 228.434562 
Q 207.960494 228.962414 207.15883 229.177719 
Q 206.357895 229.39384 205.633239 229.182831 
Q 204.910128 228.97191 204.372811 228.369547 
Q 203.906845 227.847172 203.826835 227.280979 
Q 203.748369 226.714875 203.966015 226.253981 
Q 204.185204 225.793176 204.542705 225.474281 
z
M 205.236776 226.221156 
Q 204.851524 226.564806 204.80011 227.031313 
Q 204.749423 227.498637 205.090161 227.880624 
Q 205.368284 228.192416 205.828706 228.29616 
Q 206.290673 228.399992 206.874485 228.21486 
Q 207.459025 228.030544 207.854888 227.677429 
Q 208.295642 227.28427 208.335166 226.822507 
Q 208.375418 226.361559 208.047785 225.994264 
Q 207.544688 225.430262 206.703793 225.545721 
Q 205.863626 225.661997 205.236776 226.221156 
z
M 209.790485 232.775335 
L 208.477771 231.303707 
L 209.203509 230.884982 
L 213.372234 230.798328 
L 213.93649 231.430892 
L 211.14351 233.038476 
L 211.549046 233.493106 
L 210.809786 233.918031 
L 210.404978 233.464217 
L 209.499206 233.983443 
L 208.884714 233.294561 
z
M 210.529745 232.35041 
L 211.910804 231.552322 
L 209.865016 231.60521 
z
" style="fill:#ffffff;stroke:#000000;"/>
    <path d="M 203.089883 222.777573 
L 204.58243 224.450806 
L 202.677066 225.5451 
Q 202.222511 225.42 201.705774 225.108533 
Q 201.189854 224.796337 200.792327 224.350686 
Q 200.173466 223.656907 200.156346 223.006768 
Q 200.134908 222.120111 200.948671 221.394224 
Q 201.494716 220.907144 202.187176 220.677859 
Q 203.021795 220.400914 203.780555 220.584432 
Q 204.540042 220.768767 205.118132 221.416839 
Q 205.696221 222.06491 205.743785 222.724534 
Q 205.792894 223.384245 205.330229 224.025593 
L 204.60936 223.381767 
Q 204.840778 223.005323 204.813729 222.65131 
Q 204.787408 222.298114 204.502732 221.978975 
Q 204.170731 221.606783 203.698349 221.468272 
Q 203.227512 221.329848 202.664591 221.515399 
Q 202.102399 221.701765 201.623283 222.129143 
Q 201.151513 222.549969 201.116178 222.965492 
Q 201.08157 223.381831 201.449974 223.794834 
Q 201.671308 224.042962 201.973029 224.239903 
Q 202.275478 224.43766 202.540792 224.539564 
L 203.19929 224.158833 
L 202.348174 223.204683 
z
M 204.542705 225.474281 
Q 204.874086 225.178683 205.330206 224.950629 
Q 205.938873 224.642195 206.538622 224.585016 
Q 207.139099 224.528653 207.710717 224.747195 
Q 208.283151 224.96501 208.744749 225.482487 
Q 209.36361 226.176267 209.313432 226.987567 
Q 209.263983 227.799684 208.552247 228.434562 
Q 207.960494 228.962414 207.15883 229.177719 
Q 206.357895 229.39384 205.633239 229.182831 
Q 204.910128 228.97191 204.372811 228.369547 
Q 203.906845 227.847172 203.826835 227.280979 
Q 203.748369 226.714875 203.966015 226.253981 
Q 204.185204 225.793176 204.542705 225.474281 
z
M 205.236776 226.221156 
Q 204.851524 226.564806 204.80011 227.031313 
Q 204.749423 227.498637 205.090161 227.880624 
Q 205.368284 228.192416 205.828706 228.29616 
Q 206.290673 228.399992 206.874485 228.21486 
Q 207.459025 228.030544 207.854888 227.677429 
Q 208.295642 227.28427 208.335166 226.822507 
Q 208.375418 226.361559 208.047785 225.994264 
Q 207.544688 225.430262 206.703793 225.545721 
Q 205.863626 225.661997 205.236776 226.221156 
z
M 209.790485 232.775335 
L 208.477771 231.303707 
L 209.203509 230.884982 
L 213.372234 230.798328 
L 213.93649 231.430892 
L 211.14351 233.038476 
L 211.549046 233.493106 
L 210.809786 233.918031 
L 210.404978 233.464217 
L 209.499206 233.983443 
L 208.884714 233.294561 
z
M 210.529745 232.35041 
L 211.910804 231.552322 
L 209.865016 231.60521 
z
" style="fill:#ffffff;"/>
    <path d="M 205.089883 224.777573 
L 206.58243 226.450806 
L 204.677066 227.5451 
Q 204.222511 227.42 203.705774 227.108533 
Q 203.189854 226.796337 202.792327 226.350686 
Q 202.173466 225.656907 202.156346 225.006768 
Q 202.134908 224.120111 202.948671 223.394224 
Q 203.494716 222.907144 204.187176 222.677859 
Q 205.021795 222.400914 205.780555 222.584432 
Q 206.540042 222.768767 207.118132 223.416839 
Q 207.696221 224.06491 207.743785 224.724534 
Q 207.792894 225.384245 207.330229 226.025593 
L 206.60936 225.381767 
Q 206.840778 225.005323 206.813729 224.65131 
Q 206.787408 224.298114 206.502732 223.978975 
Q 206.170731 223.606783 205.698349 223.468272 
Q 205.227512 223.329848 204.664591 223.515399 
Q 204.102399 223.701765 203.623283 224.129143 
Q 203.151513 224.549969 203.116178 224.965492 
Q 203.08157 225.381831 203.449974 225.794834 
Q 203.671308 226.042962 203.973029 226.239903 
Q 204.275478 226.43766 204.540792 226.539564 
L 205.19929 226.158833 
L 204.348174 225.204683 
z
M 206.542705 227.474281 
Q 206.874086 227.178683 207.330206 226.950629 
Q 207.938873 226.642195 208.538622 226.585016 
Q 209.139099 226.528653 209.710717 226.747195 
Q 210.283151 226.96501 210.744749 227.482487 
Q 211.36361 228.176267 211.313432 228.987567 
Q 211.263983 229.799684 210.552247 230.434562 
Q 209.960494 230.962414 209.15883 231.177719 
Q 208.357895 231.39384 207.633239 231.182831 
Q 206.910128 230.97191 206.372811 230.369547 
Q 205.906845 229.847172 205.826835 229.280979 
Q 205.748369 228.714875 205.966015 228.253981 
Q 206.185204 227.793176 206.542705 227.474281 
z
M 207.236776 228.221156 
Q 206.851524 228.564806 206.80011 229.031313 
Q 206.749423 229.498637 207.090161 229.880624 
Q 207.368284 230.192416 207.828706 230.29616 
Q 208.290673 230.399992 208.874485 230.21486 
Q 209.459025 230.030544 209.854888 229.677429 
Q 210.295642 229.28427 210.335166 228.822507 
Q 210.375418 228.361559 210.047785 227.994264 
Q 209.544688 227.430262 208.703793 227.545721 
Q 207.863626 227.661997 207.236776 228.221156 
z
M 211.790485 234.775335 
L 210.477771 233.303707 
L 211.203509 232.884982 
L 215.372234 232.798328 
L 215.93649 233.430892 
L 213.14351 235.038476 
L 213.549046 235.493106 
L 212.809786 235.918031 
L 212.404978 235.464217 
L 211.499206 235.983443 
L 210.884714 235.294561 
z
M 212.529745 234.35041 
L 213.910804 233.552322 
L 211.865016 233.60521 
z
" style="fill:#4c4c4c;opacity:0.3;"/>
    <path d="M 203.089883 222.777573 
L 204.58243 224.450806 
L 202.677066 225.5451 
Q 202.222511 225.42 201.705774 225.108533 
Q 201.189854 224.796337 200.792327 224.350686 
Q 200.173466 223.656907 200.156346 223.006768 
Q 200.134908 222.120111 200.948671 221.394224 
Q 201.494716 220.907144 202.187176 220.677859 
Q 203.021795 220.400914 203.780555 220.584432 
Q 204.540042 220.768767 205.118132 221.416839 
Q 205.696221 222.06491 205.743785 222.724534 
Q 205.792894 223.384245 205.330229 224.025593 
L 204.60936 223.381767 
Q 204.840778 223.005323 204.813729 222.65131 
Q 204.787408 222.298114 204.502732 221.978975 
Q 204.170731 221.606783 203.698349 221.468272 
Q 203.227512 221.329848 202.664591 221.515399 
Q 202.102399 221.701765 201.623283 222.129143 
Q 201.151513 222.549969 201.116178 222.965492 
Q 201.08157 223.381831 201.449974 223.794834 
Q 201.671308 224.042962 201.973029 224.239903 
Q 202.275478 224.43766 202.540792 224.539564 
L 203.19929 224.158833 
L 202.348174 223.204683 
z
M 204.542705 225.474281 
Q 204.874086 225.178683 205.330206 224.950629 
Q 205.938873 224.642195 206.538622 224.585016 
Q 207.139099 224.528653 207.710717 224.747195 
Q 208.283151 224.96501 208.744749 225.482487 
Q 209.36361 226.176267 209.313432 226.987567 
Q 209.263983 227.799684 208.552247 228.434562 
Q 207.960494 228.962414 207.15883 229.177719 
Q 206.357895 229.39384 205.633239 229.182831 
Q 204.910128 228.97191 204.372811 228.369547 
Q 203.906845 227.847172 203.826835 227.280979 
Q 203.748369 226.714875 203.966015 226.253981 
Q 204.185204 225.793176 204.542705 225.474281 
z
M 205.236776 226.221156 
Q 204.851524 226.564806 204.80011 227.031313 
Q 204.749423 227.498637 205.090161 227.880624 
Q 205.368284 228.192416 205.828706 228.29616 
Q 206.290673 228.399992 206.874485 228.21486 
Q 207.459025 228.030544 207.854888 227.677429 
Q 208.295642 227.28427 208.335166 226.822507 
Q 208.375418 226.361559 208.047785 225.994264 
Q 207.544688 225.430262 206.703793 225.545721 
Q 205.863626 225.661997 205.236776 226.221156 
z
M 209.790485 232.775335 
L 208.477771 231.303707 
L 209.203509 230.884982 
L 213.372234 230.798328 
L 213.93649 231.430892 
L 211.14351 233.038476 
L 211.549046 233.493106 
L 210.809786 233.918031 
L 210.404978 233.464217 
L 209.499206 233.983443 
L 208.884714 233.294561 
z
M 210.529745 232.35041 
L 211.910804 231.552322 
L 209.865016 231.60521 
z
" style="fill:#ffffff;"/>
   </g>
   <g id="text_21">
    <path d="M 177.557156 270.606729 
L 179.770882 270.962847 
L 178.983371 273.01412 
Q 178.55181 273.203923 177.954405 273.288393 
Q 177.357173 273.371783 176.767566 273.276934 
Q 175.849679 273.129275 175.426127 272.63574 
Q 174.84997 271.961453 175.023165 270.884826 
Q 175.139382 270.162395 175.53186 269.547552 
Q 176.00454 268.806026 176.708951 268.469571 
Q 177.414441 268.133291 178.271855 268.271221 
Q 179.129269 268.409152 179.582424 268.890833 
Q 180.036832 269.371607 180.082648 270.161093 
L 179.117154 270.116557 
Q 179.059117 269.678497 178.814734 269.420945 
Q 178.57143 269.163566 178.149202 269.095643 
Q 177.656783 269.016428 177.20293 269.207077 
Q 176.75033 269.39682 176.430742 269.895991 
Q 176.112233 270.395335 176.010262 271.029217 
Q 175.909854 271.65338 176.14466 271.998017 
Q 176.380545 272.342827 176.926958 272.430727 
Q 177.255237 272.483537 177.613574 272.44591 
Q 177.972991 272.408457 178.243113 272.320081 
L 178.513675 271.609186 
L 177.251311 271.406112 
z
M 180.385932 271.781867 
Q 180.456461 271.343441 180.666377 270.878694 
Q 180.943906 270.255329 181.373073 269.8325 
Q 181.803319 269.409845 182.384658 269.218656 
Q 182.96617 269.026387 183.650805 269.136523 
Q 184.568692 269.284182 185.04174 269.945205 
Q 185.515868 270.606402 185.364387 271.548046 
Q 185.238443 272.330949 184.752429 273.003861 
Q 184.267495 273.676947 183.572193 273.970554 
Q 182.878144 274.263255 182.081203 274.135053 
Q 181.390088 274.023874 180.970724 273.635147 
Q 180.552613 273.245513 180.430602 272.750634 
Q 180.309844 272.254848 180.385932 271.781867 
z
M 181.395668 271.923253 
Q 181.313674 272.43295 181.56818 272.827284 
Q 181.823766 273.221791 182.329144 273.303091 
Q 182.741653 273.36945 183.164289 273.159378 
Q 183.588178 272.9484 183.924237 272.436369 
Q 184.261375 271.924512 184.345627 271.400777 
Q 184.439434 270.817649 184.178697 270.434498 
Q 183.919041 270.051522 183.433101 269.97335 
Q 182.686913 269.853312 182.107458 270.473527 
Q 181.529082 271.093915 181.395668 271.923253 
z
M 187.324862 273.562807 
L 188.27036 273.600803 
Q 188.265092 274.005415 188.3907 274.181823 
Q 188.516481 274.35715 188.76593 274.397279 
Q 189.096369 274.450436 189.349208 274.2629 
Q 189.6033 274.074459 189.659237 273.726742 
Q 189.708051 273.423299 189.560522 273.217885 
Q 189.414074 273.012645 189.11711 272.964873 
Q 189.043679 272.953061 188.960431 272.95407 
L 189.258656 272.17451 
Q 189.308368 272.189153 189.354802 272.196623 
Q 189.743554 272.259161 189.977279 272.09403 
Q 190.212084 271.929073 190.266283 271.592155 
Q 190.304848 271.352425 190.189941 271.19214 
Q 190.076113 271.032029 189.852581 270.996069 
Q 189.644167 270.962542 189.4532 271.089131 
Q 189.263312 271.215893 189.106366 271.571733 
L 188.250271 271.253441 
Q 188.506631 270.734129 188.854084 270.488698 
Q 189.380317 270.12358 190.045515 270.230589 
Q 190.72691 270.340204 191.019959 270.777296 
Q 191.31318 271.213308 191.227886 271.743523 
Q 191.166043 272.127955 190.89032 272.40265 
Q 190.614772 272.676265 190.196263 272.757387 
Q 190.483925 272.973158 190.58948 273.260445 
Q 190.696115 273.547905 190.649907 273.83515 
Q 190.562006 274.381562 190.099425 274.777967 
Q 189.469361 275.320249 188.632465 275.185619 
Q 188.003982 275.084516 187.65472 274.65943 
Q 187.306538 274.234517 187.324862 273.562807 
z
" style="fill:#ffffff;stroke:#000000;"/>
    <path d="M 177.557156 270.606729 
L 179.770882 270.962847 
L 178.983371 273.01412 
Q 178.55181 273.203923 177.954405 273.288393 
Q 177.357173 273.371783 176.767566 273.276934 
Q 175.849679 273.129275 175.426127 272.63574 
Q 174.84997 271.961453 175.023165 270.884826 
Q 175.139382 270.162395 175.53186 269.547552 
Q 176.00454 268.806026 176.708951 268.469571 
Q 177.414441 268.133291 178.271855 268.271221 
Q 179.129269 268.409152 179.582424 268.890833 
Q 180.036832 269.371607 180.082648 270.161093 
L 179.117154 270.116557 
Q 179.059117 269.678497 178.814734 269.420945 
Q 178.57143 269.163566 178.149202 269.095643 
Q 177.656783 269.016428 177.20293 269.207077 
Q 176.75033 269.39682 176.430742 269.895991 
Q 176.112233 270.395335 176.010262 271.029217 
Q 175.909854 271.65338 176.14466 271.998017 
Q 176.380545 272.342827 176.926958 272.430727 
Q 177.255237 272.483537 177.613574 272.44591 
Q 177.972991 272.408457 178.243113 272.320081 
L 178.513675 271.609186 
L 177.251311 271.406112 
z
M 180.385932 271.781867 
Q 180.456461 271.343441 180.666377 270.878694 
Q 180.943906 270.255329 181.373073 269.8325 
Q 181.803319 269.409845 182.384658 269.218656 
Q 182.96617 269.026387 183.650805 269.136523 
Q 184.568692 269.284182 185.04174 269.945205 
Q 185.515868 270.606402 185.364387 271.548046 
Q 185.238443 272.330949 184.752429 273.003861 
Q 184.267495 273.676947 183.572193 273.970554 
Q 182.878144 274.263255 182.081203 274.135053 
Q 181.390088 274.023874 180.970724 273.635147 
Q 180.552613 273.245513 180.430602 272.750634 
Q 180.309844 272.254848 180.385932 271.781867 
z
M 181.395668 271.923253 
Q 181.313674 272.43295 181.56818 272.827284 
Q 181.823766 273.221791 182.329144 273.303091 
Q 182.741653 273.36945 183.164289 273.159378 
Q 183.588178 272.9484 183.924237 272.436369 
Q 184.261375 271.924512 184.345627 271.400777 
Q 184.439434 270.817649 184.178697 270.434498 
Q 183.919041 270.051522 183.433101 269.97335 
Q 182.686913 269.853312 182.107458 270.473527 
Q 181.529082 271.093915 181.395668 271.923253 
z
M 187.324862 273.562807 
L 188.27036 273.600803 
Q 188.265092 274.005415 188.3907 274.181823 
Q 188.516481 274.35715 188.76593 274.397279 
Q 189.096369 274.450436 189.349208 274.2629 
Q 189.6033 274.074459 189.659237 273.726742 
Q 189.708051 273.423299 189.560522 273.217885 
Q 189.414074 273.012645 189.11711 272.964873 
Q 189.043679 272.953061 188.960431 272.95407 
L 189.258656 272.17451 
Q 189.308368 272.189153 189.354802 272.196623 
Q 189.743554 272.259161 189.977279 272.09403 
Q 190.212084 271.929073 190.266283 271.592155 
Q 190.304848 271.352425 190.189941 271.19214 
Q 190.076113 271.032029 189.852581 270.996069 
Q 189.644167 270.962542 189.4532 271.089131 
Q 189.263312 271.215893 189.106366 271.571733 
L 188.250271 271.253441 
Q 188.506631 270.734129 188.854084 270.488698 
Q 189.380317 270.12358 190.045515 270.230589 
Q 190.72691 270.340204 191.019959 270.777296 
Q 191.31318 271.213308 191.227886 271.743523 
Q 191.166043 272.127955 190.89032 272.40265 
Q 190.614772 272.676265 190.196263 272.757387 
Q 190.483925 272.973158 190.58948 273.260445 
Q 190.696115 273.547905 190.649907 273.83515 
Q 190.562006 274.381562 190.099425 274.777967 
Q 189.469361 275.320249 188.632465 275.185619 
Q 188.003982 275.084516 187.65472 274.65943 
Q 187.306538 274.234517 187.324862 273.562807 
z
" style="fill:#ffffff;"/>
    <path d="M 179.557156 272.606729 
L 181.770882 272.962847 
L 180.983371 275.01412 
Q 180.55181 275.203923 179.954405 275.288393 
Q 179.357173 275.371783 178.767566 275.276934 
Q 177.849679 275.129275 177.426127 274.63574 
Q 176.84997 273.961453 177.023165 272.884826 
Q 177.139382 272.162395 177.53186 271.547552 
Q 178.00454 270.806026 178.708951 270.469571 
Q 179.414441 270.133291 180.271855 270.271221 
Q 181.129269 270.409152 181.582424 270.890833 
Q 182.036832 271.371607 182.082648 272.161093 
L 181.117154 272.116557 
Q 181.059117 271.678497 180.814734 271.420945 
Q 180.57143 271.163566 180.149202 271.095643 
Q 179.656783 271.016428 179.20293 271.207077 
Q 178.75033 271.39682 178.430742 271.895991 
Q 178.112233 272.395335 178.010262 273.029217 
Q 177.909854 273.65338 178.14466 273.998017 
Q 178.380545 274.342827 178.926958 274.430727 
Q 179.255237 274.483537 179.613574 274.44591 
Q 179.972991 274.408457 180.243113 274.320081 
L 180.513675 273.609186 
L 179.251311 273.406112 
z
M 182.385932 273.781867 
Q 182.456461 273.343441 182.666377 272.878694 
Q 182.943906 272.255329 183.373073 271.8325 
Q 183.803319 271.409845 184.384658 271.218656 
Q 184.96617 271.026387 185.650805 271.136523 
Q 186.568692 271.284182 187.04174 271.945205 
Q 187.515868 272.606402 187.364387 273.548046 
Q 187.238443 274.330949 186.752429 275.003861 
Q 186.267495 275.676947 185.572193 275.970554 
Q 184.878144 276.263255 184.081203 276.135053 
Q 183.390088 276.023874 182.970724 275.635147 
Q 182.552613 275.245513 182.430602 274.750634 
Q 182.309844 274.254848 182.385932 273.781867 
z
M 183.395668 273.923253 
Q 183.313674 274.43295 183.56818 274.827284 
Q 183.823766 275.221791 184.329144 275.303091 
Q 184.741653 275.36945 185.164289 275.159378 
Q 185.588178 274.9484 185.924237 274.436369 
Q 186.261375 273.924512 186.345627 273.400777 
Q 186.439434 272.817649 186.178697 272.434498 
Q 185.919041 272.051522 185.433101 271.97335 
Q 184.686913 271.853312 184.107458 272.473527 
Q 183.529082 273.093915 183.395668 273.923253 
z
M 189.324862 275.562807 
L 190.27036 275.600803 
Q 190.265092 276.005415 190.3907 276.181823 
Q 190.516481 276.35715 190.76593 276.397279 
Q 191.096369 276.450436 191.349208 276.2629 
Q 191.6033 276.074459 191.659237 275.726742 
Q 191.708051 275.423299 191.560522 275.217885 
Q 191.414074 275.012645 191.11711 274.964873 
Q 191.043679 274.953061 190.960431 274.95407 
L 191.258656 274.17451 
Q 191.308368 274.189153 191.354802 274.196623 
Q 191.743554 274.259161 191.977279 274.09403 
Q 192.212084 273.929073 192.266283 273.592155 
Q 192.304848 273.352425 192.189941 273.19214 
Q 192.076113 273.032029 191.852581 272.996069 
Q 191.644167 272.962542 191.4532 273.089131 
Q 191.263312 273.215893 191.106366 273.571733 
L 190.250271 273.253441 
Q 190.506631 272.734129 190.854084 272.488698 
Q 191.380317 272.12358 192.045515 272.230589 
Q 192.72691 272.340204 193.019959 272.777296 
Q 193.31318 273.213308 193.227886 273.743523 
Q 193.166043 274.127955 192.89032 274.40265 
Q 192.614772 274.676265 192.196263 274.757387 
Q 192.483925 274.973158 192.58948 275.260445 
Q 192.696115 275.547905 192.649907 275.83515 
Q 192.562006 276.381562 192.099425 276.777967 
Q 191.469361 277.320249 190.632465 277.185619 
Q 190.003982 277.084516 189.65472 276.65943 
Q 189.306538 276.234517 189.324862 275.562807 
z
" style="fill:#4c4c4c;opacity:0.3;"/>
    <path d="M 177.557156 270.606729 
L 179.770882 270.962847 
L 178.983371 273.01412 
Q 178.55181 273.203923 177.954405 273.288393 
Q 177.357173 273.371783 176.767566 273.276934 
Q 175.849679 273.129275 175.426127 272.63574 
Q 174.84997 271.961453 175.023165 270.884826 
Q 175.139382 270.162395 175.53186 269.547552 
Q 176.00454 268.806026 176.708951 268.469571 
Q 177.414441 268.133291 178.271855 268.271221 
Q 179.129269 268.409152 179.582424 268.890833 
Q 180.036832 269.371607 180.082648 270.161093 
L 179.117154 270.116557 
Q 179.059117 269.678497 178.814734 269.420945 
Q 178.57143 269.163566 178.149202 269.095643 
Q 177.656783 269.016428 177.20293 269.207077 
Q 176.75033 269.39682 176.430742 269.895991 
Q 176.112233 270.395335 176.010262 271.029217 
Q 175.909854 271.65338 176.14466 271.998017 
Q 176.380545 272.342827 176.926958 272.430727 
Q 177.255237 272.483537 177.613574 272.44591 
Q 177.972991 272.408457 178.243113 272.320081 
L 178.513675 271.609186 
L 177.251311 271.406112 
z
M 180.385932 271.781867 
Q 180.456461 271.343441 180.666377 270.878694 
Q 180.943906 270.255329 181.373073 269.8325 
Q 181.803319 269.409845 182.384658 269.218656 
Q 182.96617 269.026387 183.650805 269.136523 
Q 184.568692 269.284182 185.04174 269.945205 
Q 185.515868 270.606402 185.364387 271.548046 
Q 185.238443 272.330949 184.752429 273.003861 
Q 184.267495 273.676947 183.572193 273.970554 
Q 182.878144 274.263255 182.081203 274.135053 
Q 181.390088 274.023874 180.970724 273.635147 
Q 180.552613 273.245513 180.430602 272.750634 
Q 180.309844 272.254848 180.385932 271.781867 
z
M 181.395668 271.923253 
Q 181.313674 272.43295 181.56818 272.827284 
Q 181.823766 273.221791 182.329144 273.303091 
Q 182.741653 273.36945 183.164289 273.159378 
Q 183.588178 272.9484 183.924237 272.436369 
Q 184.261375 271.924512 184.345627 271.400777 
Q 184.439434 270.817649 184.178697 270.434498 
Q 183.919041 270.051522 183.433101 269.97335 
Q 182.686913 269.853312 182.107458 270.473527 
Q 181.529082 271.093915 181.395668 271.923253 
z
M 187.324862 273.562807 
L 188.27036 273.600803 
Q 188.265092 274.005415 188.3907 274.181823 
Q 188.516481 274.35715 188.76593 274.397279 
Q 189.096369 274.450436 189.349208 274.2629 
Q 189.6033 274.074459 189.659237 273.726742 
Q 189.708051 273.423299 189.560522 273.217885 
Q 189.414074 273.012645 189.11711 272.964873 
Q 189.043679 272.953061 188.960431 272.95407 
L 189.258656 272.17451 
Q 189.308368 272.189153 189.354802 272.196623 
Q 189.743554 272.259161 189.977279 272.09403 
Q 190.212084 271.929073 190.266283 271.592155 
Q 190.304848 271.352425 190.189941 271.19214 
Q 190.076113 271.032029 189.852581 270.996069 
Q 189.644167 270.962542 189.4532 271.089131 
Q 189.263312 271.215893 189.106366 271.571733 
L 188.250271 271.253441 
Q 188.506631 270.734129 188.854084 270.488698 
Q 189.380317 270.12358 190.045515 270.230589 
Q 190.72691 270.340204 191.019959 270.777296 
Q 191.31318 271.213308 191.227886 271.743523 
Q 191.166043 272.127955 190.89032 272.40265 
Q 190.614772 272.676265 190.196263 272.757387 
Q 190.483925 272.973158 190.58948 273.260445 
Q 190.696115 273.547905 190.649907 273.83515 
Q 190.562006 274.381562 190.099425 274.777967 
Q 189.469361 275.320249 188.632465 275.185619 
Q 188.003982 275.084516 187.65472 274.65943 
Q 187.306538 274.234517 187.324862 273.562807 
z
" style="fill:#ffffff;"/>
   </g>
   <g id="text_22">
    <path d="M 228.750935 367.524554 
L 229.499695 365.411082 
L 231.375718 366.554949 
Q 231.484743 367.013625 231.460304 367.616478 
Q 231.434833 368.218965 231.235407 368.78187 
Q 230.924946 369.658188 230.363233 369.985989 
Q 229.596255 370.431368 228.568386 370.067215 
Q 227.878672 369.822863 227.344515 369.326126 
Q 226.700179 368.727695 226.49601 367.97423 
Q 226.292206 367.219733 226.582213 366.401149 
Q 226.872221 365.582566 227.4276 365.223512 
Q 227.982313 364.863062 228.767151 364.960097 
L 228.549559 365.901807 
Q 228.108208 365.880047 227.810874 366.074081 
Q 227.513906 366.267084 227.371093 366.67019 
Q 227.20454 367.140309 227.310384 367.621066 
Q 227.415562 368.100426 227.849056 368.504643 
Q 228.282916 368.907828 228.88809 369.122229 
Q 229.483986 369.333343 229.865258 369.164405 
Q 230.246895 368.994436 230.431711 368.472769 
Q 230.542746 368.159357 230.570233 367.8001 
Q 230.598084 367.439811 230.559772 367.158195 
L 229.909188 366.764094 
L 229.482212 367.969289 
z
M 230.416044 364.953497 
Q 229.997473 364.805206 229.578101 364.515067 
Q 229.01487 364.129868 228.676195 363.631604 
Q 228.337884 363.132309 228.254455 362.526052 
Q 228.169996 361.919429 228.401564 361.2658 
Q 228.712025 360.389482 229.447398 360.04314 
Q 230.183137 359.695768 231.082135 360.014265 
Q 231.829583 360.27907 232.404025 360.878267 
Q 232.978832 361.476433 233.142494 362.213227 
Q 233.30549 362.948624 233.035936 363.709474 
Q 232.802177 364.36929 232.344314 364.711836 
Q 231.885786 365.052986 231.377028 365.083929 
Q 230.867605 365.113476 230.416044 364.953497 
z
M 230.736867 363.985701 
Q 231.223481 364.158098 231.657184 363.978727 
Q 232.091253 363.798324 232.262189 363.315834 
Q 232.401715 362.922007 232.271146 362.468462 
Q 232.139911 362.01352 231.696731 361.590788 
Q 231.253917 361.167024 230.753901 360.989879 
Q 230.197181 360.792644 229.773357 360.980158 
Q 229.349899 361.16664 229.185537 361.630573 
Q 228.93315 362.342967 229.438937 363.024594 
Q 229.945089 363.70519 230.736867 363.985701 
z
M 231.899234 356.325735 
L 231.443489 357.183072 
Q 230.824452 356.840761 230.617038 356.315898 
Q 230.409624 355.791034 230.622929 355.188952 
Q 230.857054 354.528106 231.348113 354.278546 
Q 231.839538 354.027955 232.390072 354.222998 
Q 232.670493 354.322346 232.911704 354.538923 
Q 233.152248 354.754104 233.368033 355.127604 
Q 233.519391 355.394734 233.767396 355.968789 
Q 234.015401 356.542844 234.113155 356.735285 
Q 234.209878 356.927361 234.328144 357.114306 
L 234.90816 355.477139 
L 235.69079 355.95051 
L 234.673937 358.820708 
Q 234.341178 358.652923 234.084379 358.382088 
Q 233.826549 358.110888 233.64081 357.77704 
Q 233.454039 357.442828 233.076951 356.59445 
Q 232.787949 355.955975 232.69436 355.781254 
Q 232.522795 355.466353 232.368869 355.317831 
Q 232.214943 355.169308 232.066485 355.116713 
Q 231.828332 355.03234 231.6302 355.119955 
Q 231.432433 355.206539 231.355731 355.423041 
Q 231.278298 355.641605 231.385843 355.865364 
Q 231.493753 356.088092 231.899234 356.325735 
z
" style="fill:#ffffff;stroke:#000000;"/>
    <path d="M 228.750935 367.524554 
L 229.499695 365.411082 
L 231.375718 366.554949 
Q 231.484743 367.013625 231.460304 367.616478 
Q 231.434833 368.218965 231.235407 368.78187 
Q 230.924946 369.658188 230.363233 369.985989 
Q 229.596255 370.431368 228.568386 370.067215 
Q 227.878672 369.822863 227.344515 369.326126 
Q 226.700179 368.727695 226.49601 367.97423 
Q 226.292206 367.219733 226.582213 366.401149 
Q 226.872221 365.582566 227.4276 365.223512 
Q 227.982313 364.863062 228.767151 364.960097 
L 228.549559 365.901807 
Q 228.108208 365.880047 227.810874 366.074081 
Q 227.513906 366.267084 227.371093 366.67019 
Q 227.20454 367.140309 227.310384 367.621066 
Q 227.415562 368.100426 227.849056 368.504643 
Q 228.282916 368.907828 228.88809 369.122229 
Q 229.483986 369.333343 229.865258 369.164405 
Q 230.246895 368.994436 230.431711 368.472769 
Q 230.542746 368.159357 230.570233 367.8001 
Q 230.598084 367.439811 230.559772 367.158195 
L 229.909188 366.764094 
L 229.482212 367.969289 
z
M 230.416044 364.953497 
Q 229.997473 364.805206 229.578101 364.515067 
Q 229.01487 364.129868 228.676195 363.631604 
Q 228.337884 363.132309 228.254455 362.526052 
Q 228.169996 361.919429 228.401564 361.2658 
Q 228.712025 360.389482 229.447398 360.04314 
Q 230.183137 359.695768 231.082135 360.014265 
Q 231.829583 360.27907 232.404025 360.878267 
Q 232.978832 361.476433 233.142494 362.213227 
Q 233.30549 362.948624 233.035936 363.709474 
Q 232.802177 364.36929 232.344314 364.711836 
Q 231.885786 365.052986 231.377028 365.083929 
Q 230.867605 365.113476 230.416044 364.953497 
z
M 230.736867 363.985701 
Q 231.223481 364.158098 231.657184 363.978727 
Q 232.091253 363.798324 232.262189 363.315834 
Q 232.401715 362.922007 232.271146 362.468462 
Q 232.139911 362.01352 231.696731 361.590788 
Q 231.253917 361.167024 230.753901 360.989879 
Q 230.197181 360.792644 229.773357 360.980158 
Q 229.349899 361.16664 229.185537 361.630573 
Q 228.93315 362.342967 229.438937 363.024594 
Q 229.945089 363.70519 230.736867 363.985701 
z
M 231.899234 356.325735 
L 231.443489 357.183072 
Q 230.824452 356.840761 230.617038 356.315898 
Q 230.409624 355.791034 230.622929 355.188952 
Q 230.857054 354.528106 231.348113 354.278546 
Q 231.839538 354.027955 232.390072 354.222998 
Q 232.670493 354.322346 232.911704 354.538923 
Q 233.152248 354.754104 233.368033 355.127604 
Q 233.519391 355.394734 233.767396 355.968789 
Q 234.015401 356.542844 234.113155 356.735285 
Q 234.209878 356.927361 234.328144 357.114306 
L 234.90816 355.477139 
L 235.69079 355.95051 
L 234.673937 358.820708 
Q 234.341178 358.652923 234.084379 358.382088 
Q 233.826549 358.110888 233.64081 357.77704 
Q 233.454039 357.442828 233.076951 356.59445 
Q 232.787949 355.955975 232.69436 355.781254 
Q 232.522795 355.466353 232.368869 355.317831 
Q 232.214943 355.169308 232.066485 355.116713 
Q 231.828332 355.03234 231.6302 355.119955 
Q 231.432433 355.206539 231.355731 355.423041 
Q 231.278298 355.641605 231.385843 355.865364 
Q 231.493753 356.088092 231.899234 356.325735 
z
" style="fill:#ffffff;"/>
    <path d="M 230.750935 369.524554 
L 231.499695 367.411082 
L 233.375718 368.554949 
Q 233.484743 369.013625 233.460304 369.616478 
Q 233.434833 370.218965 233.235407 370.78187 
Q 232.924946 371.658188 232.363233 371.985989 
Q 231.596255 372.431368 230.568386 372.067215 
Q 229.878672 371.822863 229.344515 371.326126 
Q 228.700179 370.727695 228.49601 369.97423 
Q 228.292206 369.219733 228.582213 368.401149 
Q 228.872221 367.582566 229.4276 367.223512 
Q 229.982313 366.863062 230.767151 366.960097 
L 230.549559 367.901807 
Q 230.108208 367.880047 229.810874 368.074081 
Q 229.513906 368.267084 229.371093 368.67019 
Q 229.20454 369.140309 229.310384 369.621066 
Q 229.415562 370.100426 229.849056 370.504643 
Q 230.282916 370.907828 230.88809 371.122229 
Q 231.483986 371.333343 231.865258 371.164405 
Q 232.246895 370.994436 232.431711 370.472769 
Q 232.542746 370.159357 232.570233 369.8001 
Q 232.598084 369.439811 232.559772 369.158195 
L 231.909188 368.764094 
L 231.482212 369.969289 
z
M 232.416044 366.953497 
Q 231.997473 366.805206 231.578101 366.515067 
Q 231.01487 366.129868 230.676195 365.631604 
Q 230.337884 365.132309 230.254455 364.526052 
Q 230.169996 363.919429 230.401564 363.2658 
Q 230.712025 362.389482 231.447398 362.04314 
Q 232.183137 361.695768 233.082135 362.014265 
Q 233.829583 362.27907 234.404025 362.878267 
Q 234.978832 363.476433 235.142494 364.213227 
Q 235.30549 364.948624 235.035936 365.709474 
Q 234.802177 366.36929 234.344314 366.711836 
Q 233.885786 367.052986 233.377028 367.083929 
Q 232.867605 367.113476 232.416044 366.953497 
z
M 232.736867 365.985701 
Q 233.223481 366.158098 233.657184 365.978727 
Q 234.091253 365.798324 234.262189 365.315834 
Q 234.401715 364.922007 234.271146 364.468462 
Q 234.139911 364.01352 233.696731 363.590788 
Q 233.253917 363.167024 232.753901 362.989879 
Q 232.197181 362.792644 231.773357 362.980158 
Q 231.349899 363.16664 231.185537 363.630573 
Q 230.93315 364.342967 231.438937 365.024594 
Q 231.945089 365.70519 232.736867 365.985701 
z
M 233.899234 358.325735 
L 233.443489 359.183072 
Q 232.824452 358.840761 232.617038 358.315898 
Q 232.409624 357.791034 232.622929 357.188952 
Q 232.857054 356.528106 233.348113 356.278546 
Q 233.839538 356.027955 234.390072 356.222998 
Q 234.670493 356.322346 234.911704 356.538923 
Q 235.152248 356.754104 235.368033 357.127604 
Q 235.519391 357.394734 235.767396 357.968789 
Q 236.015401 358.542844 236.113155 358.735285 
Q 236.209878 358.927361 236.328144 359.114306 
L 236.90816 357.477139 
L 237.69079 357.95051 
L 236.673937 360.820708 
Q 236.341178 360.652923 236.084379 360.382088 
Q 235.826549 360.110888 235.64081 359.77704 
Q 235.454039 359.442828 235.076951 358.59445 
Q 234.787949 357.955975 234.69436 357.781254 
Q 234.522795 357.466353 234.368869 357.317831 
Q 234.214943 357.169308 234.066485 357.116713 
Q 233.828332 357.03234 233.6302 357.119955 
Q 233.432433 357.206539 233.355731 357.423041 
Q 233.278298 357.641605 233.385843 357.865364 
Q 233.493753 358.088092 233.899234 358.325735 
z
" style="fill:#4c4c4c;opacity:0.3;"/>
    <path d="M 228.750935 367.524554 
L 229.499695 365.411082 
L 231.375718 366.554949 
Q 231.484743 367.013625 231.460304 367.616478 
Q 231.434833 368.218965 231.235407 368.78187 
Q 230.924946 369.658188 230.363233 369.985989 
Q 229.596255 370.431368 228.568386 370.067215 
Q 227.878672 369.822863 227.344515 369.326126 
Q 226.700179 368.727695 226.49601 367.97423 
Q 226.292206 367.219733 226.582213 366.401149 
Q 226.872221 365.582566 227.4276 365.223512 
Q 227.982313 364.863062 228.767151 364.960097 
L 228.549559 365.901807 
Q 228.108208 365.880047 227.810874 366.074081 
Q 227.513906 366.267084 227.371093 366.67019 
Q 227.20454 367.140309 227.310384 367.621066 
Q 227.415562 368.100426 227.849056 368.504643 
Q 228.282916 368.907828 228.88809 369.122229 
Q 229.483986 369.333343 229.865258 369.164405 
Q 230.246895 368.994436 230.431711 368.472769 
Q 230.542746 368.159357 230.570233 367.8001 
Q 230.598084 367.439811 230.559772 367.158195 
L 229.909188 366.764094 
L 229.482212 367.969289 
z
M 230.416044 364.953497 
Q 229.997473 364.805206 229.578101 364.515067 
Q 229.01487 364.129868 228.676195 363.631604 
Q 228.337884 363.132309 228.254455 362.526052 
Q 228.169996 361.919429 228.401564 361.2658 
Q 228.712025 360.389482 229.447398 360.04314 
Q 230.183137 359.695768 231.082135 360.014265 
Q 231.829583 360.27907 232.404025 360.878267 
Q 232.978832 361.476433 233.142494 362.213227 
Q 233.30549 362.948624 233.035936 363.709474 
Q 232.802177 364.36929 232.344314 364.711836 
Q 231.885786 365.052986 231.377028 365.083929 
Q 230.867605 365.113476 230.416044 364.953497 
z
M 230.736867 363.985701 
Q 231.223481 364.158098 231.657184 363.978727 
Q 232.091253 363.798324 232.262189 363.315834 
Q 232.401715 362.922007 232.271146 362.468462 
Q 232.139911 362.01352 231.696731 361.590788 
Q 231.253917 361.167024 230.753901 360.989879 
Q 230.197181 360.792644 229.773357 360.980158 
Q 229.349899 361.16664 229.185537 361.630573 
Q 228.93315 362.342967 229.438937 363.024594 
Q 229.945089 363.70519 230.736867 363.985701 
z
M 231.899234 356.325735 
L 231.443489 357.183072 
Q 230.824452 356.840761 230.617038 356.315898 
Q 230.409624 355.791034 230.622929 355.188952 
Q 230.857054 354.528106 231.348113 354.278546 
Q 231.839538 354.027955 232.390072 354.222998 
Q 232.670493 354.322346 232.911704 354.538923 
Q 233.152248 354.754104 233.368033 355.127604 
Q 233.519391 355.394734 233.767396 355.968789 
Q 234.015401 356.542844 234.113155 356.735285 
Q 234.209878 356.927361 234.328144 357.114306 
L 234.90816 355.477139 
L 235.69079 355.95051 
L 234.673937 358.820708 
Q 234.341178 358.652923 234.084379 358.382088 
Q 233.826549 358.110888 233.64081 357.77704 
Q 233.454039 357.442828 233.076951 356.59445 
Q 232.787949 355.955975 232.69436 355.781254 
Q 232.522795 355.466353 232.368869 355.317831 
Q 232.214943 355.169308 232.066485 355.116713 
Q 231.828332 355.03234 231.6302 355.119955 
Q 231.432433 355.206539 231.355731 355.423041 
Q 231.278298 355.641605 231.385843 355.865364 
Q 231.493753 356.088092 231.899234 356.325735 
z
" style="fill:#ffffff;"/>
   </g>
   <g id="text_23">
    <path d="M 331.160848 262.970483 
L 333.308062 262.324825 
L 333.494679 264.514133 
Q 333.189212 264.873243 332.688558 265.209954 
Q 332.18759 265.545618 331.615698 265.717583 
Q 330.725389 265.985295 330.128917 265.726075 
Q 329.316259 265.370821 329.002248 264.326542 
Q 328.791543 263.625817 328.876358 262.901331 
Q 328.978048 262.027863 329.465013 261.417731 
Q 329.953025 260.807285 330.784678 260.55721 
Q 331.616331 260.307136 332.234264 260.542771 
Q 332.85293 260.777043 333.238686 261.46739 
L 332.350546 261.848663 
Q 332.107157 261.479845 331.774876 261.354762 
Q 331.443642 261.229363 331.0341 261.352511 
Q 330.556476 261.49613 330.23132 261.86573 
Q 329.906897 262.233967 329.837187 262.822565 
Q 329.768524 263.410849 329.953403 264.025686 
Q 330.135447 264.631096 330.497114 264.838713 
Q 330.859828 265.046016 331.389824 264.886649 
Q 331.70824 264.790902 332.014234 264.600668 
Q 332.321275 264.410119 332.52575 264.212721 
L 332.458952 263.455018 
L 331.234516 263.823201 
z
M 334.218876 262.79333 
Q 334.091005 262.368077 334.07706 261.858312 
Q 334.05473 261.176324 334.256349 260.608594 
Q 334.459016 260.040548 334.898641 259.614828 
Q 335.337951 259.18806 336.002016 258.988379 
Q 336.892325 258.720667 337.606423 259.108984 
Q 338.321568 259.496986 338.596209 260.410338 
Q 338.824552 261.169718 338.68092 261.98727 
Q 338.538337 262.804507 338.040869 263.372112 
Q 337.544133 263.938355 336.771136 264.170792 
Q 336.100786 264.372363 335.55382 264.205616 
Q 335.007587 264.037507 334.681841 263.645485 
Q 334.356827 263.252101 334.218876 262.79333 
z
M 335.189089 262.479891 
Q 335.337748 262.974274 335.738829 263.218009 
Q 336.140957 263.461429 336.63115 263.31403 
Q 337.031266 263.193717 337.319857 262.820265 
Q 337.609181 262.445451 337.688098 261.838093 
Q 337.768063 261.230421 337.61531 260.722422 
Q 337.445234 260.156814 337.043428 259.92586 
Q 336.642669 259.694591 336.171329 259.836321 
Q 335.447561 260.053955 335.196859 260.86487 
Q 334.947204 261.675471 335.189089 262.479891 
z
M 341.242331 259.728873 
L 341.167381 258.837708 
Q 342.222708 257.941317 342.675438 257.038815 
L 343.248378 256.866535 
L 343.688197 261.998348 
L 342.742376 262.282753 
L 342.439976 258.747429 
Q 342.20161 259.025829 341.864449 259.298531 
Q 341.527289 259.571233 341.242331 259.728873 
z
" style="fill:#ffffff;stroke:#000000;"/>
    <path d="M 331.160848 262.970483 
L 333.308062 262.324825 
L 333.494679 264.514133 
Q 333.189212 264.873243 332.688558 265.209954 
Q 332.18759 265.545618 331.615698 265.717583 
Q 330.725389 265.985295 330.128917 265.726075 
Q 329.316259 265.370821 329.002248 264.326542 
Q 328.791543 263.625817 328.876358 262.901331 
Q 328.978048 262.027863 329.465013 261.417731 
Q 329.953025 260.807285 330.784678 260.55721 
Q 331.616331 260.307136 332.234264 260.542771 
Q 332.85293 260.777043 333.238686 261.46739 
L 332.350546 261.848663 
Q 332.107157 261.479845 331.774876 261.354762 
Q 331.443642 261.229363 331.0341 261.352511 
Q 330.556476 261.49613 330.23132 261.86573 
Q 329.906897 262.233967 329.837187 262.822565 
Q 329.768524 263.410849 329.953403 264.025686 
Q 330.135447 264.631096 330.497114 264.838713 
Q 330.859828 265.046016 331.389824 264.886649 
Q 331.70824 264.790902 332.014234 264.600668 
Q 332.321275 264.410119 332.52575 264.212721 
L 332.458952 263.455018 
L 331.234516 263.823201 
z
M 334.218876 262.79333 
Q 334.091005 262.368077 334.07706 261.858312 
Q 334.05473 261.176324 334.256349 260.608594 
Q 334.459016 260.040548 334.898641 259.614828 
Q 335.337951 259.18806 336.002016 258.988379 
Q 336.892325 258.720667 337.606423 259.108984 
Q 338.321568 259.496986 338.596209 260.410338 
Q 338.824552 261.169718 338.68092 261.98727 
Q 338.538337 262.804507 338.040869 263.372112 
Q 337.544133 263.938355 336.771136 264.170792 
Q 336.100786 264.372363 335.55382 264.205616 
Q 335.007587 264.037507 334.681841 263.645485 
Q 334.356827 263.252101 334.218876 262.79333 
z
M 335.189089 262.479891 
Q 335.337748 262.974274 335.738829 263.218009 
Q 336.140957 263.461429 336.63115 263.31403 
Q 337.031266 263.193717 337.319857 262.820265 
Q 337.609181 262.445451 337.688098 261.838093 
Q 337.768063 261.230421 337.61531 260.722422 
Q 337.445234 260.156814 337.043428 259.92586 
Q 336.642669 259.694591 336.171329 259.836321 
Q 335.447561 260.053955 335.196859 260.86487 
Q 334.947204 261.675471 335.189089 262.479891 
z
M 341.242331 259.728873 
L 341.167381 258.837708 
Q 342.222708 257.941317 342.675438 257.038815 
L 343.248378 256.866535 
L 343.688197 261.998348 
L 342.742376 262.282753 
L 342.439976 258.747429 
Q 342.20161 259.025829 341.864449 259.298531 
Q 341.527289 259.571233 341.242331 259.728873 
z
" style="fill:#ffffff;"/>
    <path d="M 333.160848 264.970483 
L 335.308062 264.324825 
L 335.494679 266.514133 
Q 335.189212 266.873243 334.688558 267.209954 
Q 334.18759 267.545618 333.615698 267.717583 
Q 332.725389 267.985295 332.128917 267.726075 
Q 331.316259 267.370821 331.002248 266.326542 
Q 330.791543 265.625817 330.876358 264.901331 
Q 330.978048 264.027863 331.465013 263.417731 
Q 331.953025 262.807285 332.784678 262.55721 
Q 333.616331 262.307136 334.234264 262.542771 
Q 334.85293 262.777043 335.238686 263.46739 
L 334.350546 263.848663 
Q 334.107157 263.479845 333.774876 263.354762 
Q 333.443642 263.229363 333.0341 263.352511 
Q 332.556476 263.49613 332.23132 263.86573 
Q 331.906897 264.233967 331.837187 264.822565 
Q 331.768524 265.410849 331.953403 266.025686 
Q 332.135447 266.631096 332.497114 266.838713 
Q 332.859828 267.046016 333.389824 266.886649 
Q 333.70824 266.790902 334.014234 266.600668 
Q 334.321275 266.410119 334.52575 266.212721 
L 334.458952 265.455018 
L 333.234516 265.823201 
z
M 336.218876 264.79333 
Q 336.091005 264.368077 336.07706 263.858312 
Q 336.05473 263.176324 336.256349 262.608594 
Q 336.459016 262.040548 336.898641 261.614828 
Q 337.337951 261.18806 338.002016 260.988379 
Q 338.892325 260.720667 339.606423 261.108984 
Q 340.321568 261.496986 340.596209 262.410338 
Q 340.824552 263.169718 340.68092 263.98727 
Q 340.538337 264.804507 340.040869 265.372112 
Q 339.544133 265.938355 338.771136 266.170792 
Q 338.100786 266.372363 337.55382 266.205616 
Q 337.007587 266.037507 336.681841 265.645485 
Q 336.356827 265.252101 336.218876 264.79333 
z
M 337.189089 264.479891 
Q 337.337748 264.974274 337.738829 265.218009 
Q 338.140957 265.461429 338.63115 265.31403 
Q 339.031266 265.193717 339.319857 264.820265 
Q 339.609181 264.445451 339.688098 263.838093 
Q 339.768063 263.230421 339.61531 262.722422 
Q 339.445234 262.156814 339.043428 261.92586 
Q 338.642669 261.694591 338.171329 261.836321 
Q 337.447561 262.053955 337.196859 262.86487 
Q 336.947204 263.675471 337.189089 264.479891 
z
M 343.242331 261.728873 
L 343.167381 260.837708 
Q 344.222708 259.941317 344.675438 259.038815 
L 345.248378 258.866535 
L 345.688197 263.998348 
L 344.742376 264.282753 
L 344.439976 260.747429 
Q 344.20161 261.025829 343.864449 261.298531 
Q 343.527289 261.571233 343.242331 261.728873 
z
" style="fill:#4c4c4c;opacity:0.3;"/>
    <path d="M 331.160848 262.970483 
L 333.308062 262.324825 
L 333.494679 264.514133 
Q 333.189212 264.873243 332.688558 265.209954 
Q 332.18759 265.545618 331.615698 265.717583 
Q 330.725389 265.985295 330.128917 265.726075 
Q 329.316259 265.370821 329.002248 264.326542 
Q 328.791543 263.625817 328.876358 262.901331 
Q 328.978048 262.027863 329.465013 261.417731 
Q 329.953025 260.807285 330.784678 260.55721 
Q 331.616331 260.307136 332.234264 260.542771 
Q 332.85293 260.777043 333.238686 261.46739 
L 332.350546 261.848663 
Q 332.107157 261.479845 331.774876 261.354762 
Q 331.443642 261.229363 331.0341 261.352511 
Q 330.556476 261.49613 330.23132 261.86573 
Q 329.906897 262.233967 329.837187 262.822565 
Q 329.768524 263.410849 329.953403 264.025686 
Q 330.135447 264.631096 330.497114 264.838713 
Q 330.859828 265.046016 331.389824 264.886649 
Q 331.70824 264.790902 332.014234 264.600668 
Q 332.321275 264.410119 332.52575 264.212721 
L 332.458952 263.455018 
L 331.234516 263.823201 
z
M 334.218876 262.79333 
Q 334.091005 262.368077 334.07706 261.858312 
Q 334.05473 261.176324 334.256349 260.608594 
Q 334.459016 260.040548 334.898641 259.614828 
Q 335.337951 259.18806 336.002016 258.988379 
Q 336.892325 258.720667 337.606423 259.108984 
Q 338.321568 259.496986 338.596209 260.410338 
Q 338.824552 261.169718 338.68092 261.98727 
Q 338.538337 262.804507 338.040869 263.372112 
Q 337.544133 263.938355 336.771136 264.170792 
Q 336.100786 264.372363 335.55382 264.205616 
Q 335.007587 264.037507 334.681841 263.645485 
Q 334.356827 263.252101 334.218876 262.79333 
z
M 335.189089 262.479891 
Q 335.337748 262.974274 335.738829 263.218009 
Q 336.140957 263.461429 336.63115 263.31403 
Q 337.031266 263.193717 337.319857 262.820265 
Q 337.609181 262.445451 337.688098 261.838093 
Q 337.768063 261.230421 337.61531 260.722422 
Q 337.445234 260.156814 337.043428 259.92586 
Q 336.642669 259.694591 336.171329 259.836321 
Q 335.447561 260.053955 335.196859 260.86487 
Q 334.947204 261.675471 335.189089 262.479891 
z
M 341.242331 259.728873 
L 341.167381 258.837708 
Q 342.222708 257.941317 342.675438 257.038815 
L 343.248378 256.866535 
L 343.688197 261.998348 
L 342.742376 262.282753 
L 342.439976 258.747429 
Q 342.20161 259.025829 341.864449 259.298531 
Q 341.527289 259.571233 341.242331 259.728873 
z
" style="fill:#ffffff;"/>
   </g>
   <g id="text_24">
    <text style="font-family:Arial;font-size:12px;font-style:normal;font-weight:normal;text-anchor:middle;" transform="rotate(-0, 260.511636, 15.789375)" x="260.511636" y="15.789375">CirGO Visualisation Plot</text>
   </g>
   <g id="legend_1">
    <g id="text_25">
     <text style="font-family:Arial;font-size:7px;font-style:normal;font-weight:normal;text-anchor:start;" transform="rotate(-0, 610.811168, 38.369156)" x="610.811168" y="38.369156">Name and Proportion of the Biological Process (Inner Ring)</text>
    </g>
    <g id="patch_58">
     <path d="M 606.651636 48.352906 
L 620.651636 48.352906 
L 620.651636 43.452906 
L 606.651636 43.452906 
z
" style="fill:#e3ae8c;stroke:#ffffff;stroke-linejoin:miter;stroke-width:0.7;"/>
    </g>
    <g id="text_26">
     <text style="font-family:Arial;font-size:7px;font-style:normal;font-weight:normal;text-anchor:start;" transform="rotate(-0, 626.251636, 48.352906)" x="626.251636" y="48.352906">GO1 T cell activation, 40.7%</text>
    </g>
    <g id="patch_59">
     <path d="M 606.651636 58.344312 
L 620.651636 58.344312 
L 620.651636 53.444312 
L 606.651636 53.444312 
z
" style="fill:#3e2690;stroke:#ffffff;stroke-linejoin:miter;stroke-width:0.7;"/>
    </g>
    <g id="text_27">
     <text style="font-family:Arial;font-size:7px;font-style:normal;font-weight:normal;text-anchor:start;" transform="rotate(-0, 626.251636, 58.344312)" x="626.251636" y="58.344312">GO2 organelle fission, 29.4%</text>
    </g>
    <g id="patch_60">
     <path d="M 606.651636 68.41775 
L 620.651636 68.41775 
L 620.651636 63.51775 
L 606.651636 63.51775 
z
" style="fill:#cc96eb;stroke:#ffffff;stroke-linejoin:miter;stroke-width:0.7;"/>
    </g>
    <g id="text_28">
     <text style="font-family:Arial;font-size:7px;font-style:normal;font-weight:normal;text-anchor:start;" transform="rotate(-0, 626.251636, 68.41775)" x="626.251636" y="68.41775">GO3 biosynthetic/metabolic/catabolic processes, 14.8%</text>
    </g>
    <g id="patch_61">
     <path d="M 606.651636 78.491187 
L 620.651636 78.491187 
L 620.651636 73.591187 
L 606.651636 73.591187 
z
" style="fill:#214a65;stroke:#ffffff;stroke-linejoin:miter;stroke-width:0.7;"/>
    </g>
    <g id="text_29">
     <text style="font-family:Arial;font-size:7px;font-style:normal;font-weight:normal;text-anchor:start;" transform="rotate(-0, 626.251636, 78.491187)" x="626.251636" y="78.491187">GO4 immune response, 6.9%</text>
    </g>
    <g id="patch_62">
     <path d="M 606.651636 88.478219 
L 620.651636 88.478219 
L 620.651636 83.578219 
L 606.651636 83.578219 
z
" style="fill:#a1c54d;stroke:#ffffff;stroke-linejoin:miter;stroke-width:0.7;"/>
    </g>
    <g id="text_30">
     <text style="font-family:Arial;font-size:7px;font-style:normal;font-weight:normal;text-anchor:start;" transform="rotate(-0, 626.251636, 88.478219)" x="626.251636" y="88.478219">cytokine secretion; protein targeting/localization, 2.8%</text>
    </g>
    <g id="patch_63">
     <path d="M 606.651636 98.461969 
L 620.651636 98.461969 
L 620.651636 93.561969 
L 606.651636 93.561969 
z
" style="fill:#943105;stroke:#ffffff;stroke-linejoin:miter;stroke-width:0.7;"/>
    </g>
    <g id="text_31">
     <text style="font-family:Arial;font-size:7px;font-style:normal;font-weight:normal;text-anchor:start;" transform="rotate(-0, 626.251636, 98.461969)" x="626.251636" y="98.461969">cell homeostasis, 2.7%</text>
    </g>
    <g id="patch_64">
     <path d="M 606.651636 108.449 
L 620.651636 108.449 
L 620.651636 103.549 
L 606.651636 103.549 
z
" style="fill:#0cc0aa;stroke:#ffffff;stroke-linejoin:miter;stroke-width:0.7;"/>
    </g>
    <g id="text_32">
     <text style="font-family:Arial;font-size:7px;font-style:normal;font-weight:normal;text-anchor:start;" transform="rotate(-0, 626.251636, 108.449)" x="626.251636" y="108.449">response to chemokine/interferon, 2.6%</text>
    </g>
   </g>
  </g>
 </g>
</svg>
